<svg width="40" height="40" viewBox="0 0 40 40" fill="currentColor" xmlns="http://www.w3.org/2000/svg">
<path d="M20 3.33334C10.8 3.33334 3.33331 10.8 3.33331 20C3.33331 29.2 10.8 36.6667 20 36.6667C29.2 36.6667 36.6666 29.2 36.6666 20C36.6666 10.8 29.2 3.33334 20 3.33334ZM27.7333 14.6667C27.4833 17.3 26.4 23.7 25.85 26.65C25.6166 27.9 25.15 28.3167 24.7166 28.3667C23.75 28.45 23.0166 27.7333 22.0833 27.1167C20.6166 26.15 19.7833 25.55 18.3666 24.6167C16.7166 23.5333 17.7833 22.9333 18.7333 21.9667C18.9833 21.7167 23.25 17.8333 23.3333 17.4833C23.3449 17.4303 23.3433 17.3753 23.3288 17.323C23.3143 17.2707 23.2872 17.2228 23.25 17.1833C23.15 17.1 23.0166 17.1333 22.9 17.15C22.75 17.1833 20.4166 18.7333 15.8666 21.8C15.2 22.25 14.6 22.4833 14.0666 22.4667C13.4666 22.45 12.3333 22.1333 11.4833 21.85C10.4333 21.5167 9.61665 21.3333 9.68331 20.75C9.71665 20.45 10.1333 20.15 10.9166 19.8333C15.7833 17.7167 19.0166 16.3167 20.6333 15.65C25.2666 13.7167 26.2166 13.3833 26.85 13.3833C26.9833 13.3833 27.3 13.4167 27.5 13.5833C27.6666 13.7167 27.7166 13.9 27.7333 14.0333C27.7166 14.1333 27.75 14.4333 27.7333 14.6667Z" fill="currentColor"/>
</svg>
