<svg width="198" height="23" viewBox="0 0 198 23" fill="none" xmlns="http://www.w3.org/2000/svg">
<path d="M186.552 0C189.464 0 191.614 0.154405 193.004 0.463215C194.394 0.772024 195.474 1.34553 196.246 2.18372C197.129 3.17633 197.669 4.7314 197.868 6.84895C197.956 7.75332 198 9.3084 198 11.5142C198 14.2714 197.835 16.3007 197.504 17.6021C197.195 18.8815 196.621 19.8962 195.783 20.6461C194.658 21.6387 192.872 22.2122 190.423 22.3666C189.21 22.4769 186.045 22.5321 180.927 22.5321C178.214 22.5321 176.185 22.4438 174.839 22.2674C173.516 22.0909 172.413 21.7711 171.531 21.3079C170.406 20.6902 169.623 19.7197 169.181 18.3962C168.762 17.0507 168.553 14.9111 168.553 11.9774C168.553 8.64666 168.652 6.45191 168.851 5.39314C169.38 2.45945 171.321 0.772023 174.674 0.330867C176.35 0.110289 180.31 0 186.552 0ZM183.409 4.16893C182.24 4.16893 181.368 4.16893 180.795 4.16893C180.221 4.16893 179.538 4.20202 178.744 4.26819C177.949 4.3123 177.387 4.34539 177.056 4.36745C176.747 4.38951 176.35 4.48877 175.865 4.66523C175.402 4.84169 175.104 4.98507 174.972 5.09536C174.839 5.18359 174.652 5.40417 174.409 5.75709C174.167 6.11002 174.034 6.4078 174.012 6.65043C173.99 6.87101 173.935 7.27908 173.847 7.87464C173.781 8.4702 173.747 8.97753 173.747 9.39663C173.747 9.79367 173.747 10.4333 173.747 11.3157C173.747 12.3083 173.747 13.0693 173.747 13.5986C173.747 14.128 173.803 14.7015 173.913 15.3192C174.045 15.9147 174.155 16.3338 174.244 16.5765C174.354 16.8191 174.586 17.0948 174.939 17.4036C175.314 17.6904 175.655 17.8779 175.964 17.9661C176.295 18.0323 176.835 18.1205 177.585 18.2308C178.335 18.319 179.03 18.3631 179.67 18.3631C180.332 18.3631 181.291 18.3631 182.548 18.3631C185.703 18.3631 187.798 18.319 188.835 18.2308C189.894 18.1426 190.721 17.933 191.316 17.6021C191.934 17.2713 192.353 16.6647 192.574 15.7824C192.794 14.9001 192.905 13.356 192.905 11.1502C192.905 10.29 192.905 9.66132 192.905 9.26428C192.905 8.84519 192.872 8.34889 192.805 7.77538C192.739 7.20188 192.684 6.80484 192.64 6.58426C192.618 6.36368 192.486 6.07693 192.243 5.724C192.022 5.37108 191.846 5.1505 191.714 5.06227C191.581 4.95198 191.272 4.8086 190.787 4.63214C190.324 4.45568 189.938 4.36745 189.629 4.36745C189.32 4.34539 188.769 4.3123 187.975 4.26819C187.203 4.20202 186.53 4.16893 185.956 4.16893C185.405 4.16893 184.556 4.16893 183.409 4.16893Z" fill="white"/>
<path d="M150.777 9.95916L157.99 1.81982C158.519 1.15808 159.016 0.716928 159.479 0.49635C159.942 0.275772 160.593 0.18754 161.431 0.231655H163.548C164.32 0.231655 164.706 0.551494 164.706 1.19117C164.706 1.36763 164.574 1.6213 164.309 1.95217L153.292 13.9957V20.1499C153.336 21.5836 152.663 22.3005 151.273 22.3005H150.214C148.825 22.3005 148.152 21.5836 148.196 20.1499V13.9957L137.079 1.95217C136.814 1.66542 136.682 1.40072 136.682 1.15808C136.682 0.540465 137.068 0.231655 137.84 0.231655H140.057C140.895 0.18754 141.546 0.275772 142.009 0.49635C142.472 0.716928 142.968 1.15808 143.498 1.81982L150.777 9.95916Z" fill="white"/>
<path d="M112.028 0C114.94 0 117.09 0.154405 118.48 0.463215C119.87 0.772024 120.95 1.34553 121.722 2.18372C122.605 3.17633 123.145 4.7314 123.344 6.84895C123.432 7.75332 123.476 9.3084 123.476 11.5142C123.476 14.2714 123.311 16.3007 122.98 17.6021C122.671 18.8815 122.097 19.8962 121.259 20.6461C120.134 21.6387 118.348 22.2122 115.899 22.3666C114.686 22.4769 111.521 22.5321 106.403 22.5321C103.69 22.5321 101.661 22.4438 100.315 22.2674C98.9918 22.0909 97.8889 21.7711 97.0066 21.3079C95.8817 20.6902 95.0986 19.7197 94.6575 18.3962C94.2384 17.0507 94.0288 14.9111 94.0288 11.9774C94.0288 8.64666 94.1281 6.45191 94.3266 5.39314C94.856 2.45945 96.7971 0.772023 100.15 0.330867C101.826 0.110289 105.786 0 112.028 0ZM108.885 4.16893C107.716 4.16893 106.844 4.16893 106.271 4.16893C105.697 4.16893 105.014 4.20202 104.22 4.26819C103.425 4.3123 102.863 4.34539 102.532 4.36745C102.223 4.38951 101.826 4.48877 101.341 4.66523C100.878 4.84169 100.58 4.98507 100.448 5.09536C100.315 5.18359 100.128 5.40417 99.8852 5.75709C99.6425 6.11002 99.5102 6.4078 99.4881 6.65043C99.4661 6.87101 99.4109 7.27908 99.3227 7.87464C99.2565 8.4702 99.2234 8.97753 99.2234 9.39663C99.2234 9.79367 99.2234 10.4333 99.2234 11.3157C99.2234 12.3083 99.2234 13.0693 99.2234 13.5986C99.2234 14.128 99.2786 14.7015 99.3889 15.3192C99.5212 15.9147 99.6315 16.3338 99.7197 16.5765C99.83 16.8191 100.062 17.0948 100.415 17.4036C100.79 17.6904 101.131 17.8779 101.44 17.9661C101.771 18.0323 102.312 18.1205 103.061 18.2308C103.811 18.319 104.506 18.3631 105.146 18.3631C105.808 18.3631 106.767 18.3631 108.024 18.3631C111.179 18.3631 113.274 18.319 114.311 18.2308C115.37 18.1426 116.197 17.933 116.792 17.6021C117.41 17.2713 117.829 16.6647 118.05 15.7824C118.27 14.9001 118.381 13.356 118.381 11.1502C118.381 10.29 118.381 9.66132 118.381 9.26428C118.381 8.84519 118.348 8.34889 118.281 7.77538C118.215 7.20188 118.16 6.80484 118.116 6.58426C118.094 6.36368 117.962 6.07693 117.719 5.724C117.498 5.37108 117.322 5.1505 117.19 5.06227C117.057 4.95198 116.748 4.8086 116.263 4.63214C115.8 4.45568 115.414 4.36745 115.105 4.36745C114.796 4.34539 114.245 4.3123 113.451 4.26819C112.679 4.20202 112.006 4.16893 111.432 4.16893C110.881 4.16893 110.032 4.16893 108.885 4.16893Z" fill="white"/>
<path d="M83.6073 13.8303H75.5672C74.9275 13.8303 74.4202 13.6869 74.0452 13.4002C73.6923 13.0914 73.5158 12.6723 73.5158 12.1429C73.5158 11.6356 73.6923 11.2385 74.0452 10.9518C74.4202 10.643 74.9275 10.4886 75.5672 10.4886H86.4197C87.1255 10.4444 87.6659 10.5988 88.0409 10.9518C88.4159 11.2826 88.5923 11.7789 88.5703 12.4407V12.8377C88.5703 14.9112 88.5041 16.4001 88.3718 17.3044C88.2394 18.2088 87.9637 19.036 87.5446 19.7859C86.927 20.9329 85.78 21.716 84.1036 22.1351C83.133 22.3777 79.9016 22.499 74.4092 22.499C68.8947 22.499 65.5199 22.2564 64.2846 21.7711C63.2259 21.3741 62.3987 20.8337 61.8031 20.1499C61.2296 19.444 60.8326 18.5066 60.612 17.3375C60.3694 16.1905 60.248 14.2384 60.248 11.4812C60.248 8.56953 60.3694 6.49609 60.612 5.26086C60.8546 4.02562 61.3289 3.02199 62.0347 2.24996C62.9612 1.25736 64.2846 0.650772 66.0051 0.430194C67.6374 0.1655 71.288 0.0331535 76.9569 0.0331535C80.1773 0.0331535 82.4823 0.176529 83.872 0.463281C85.2837 0.750033 86.3425 1.30148 87.0483 2.11762C87.8865 3.0661 88.3056 4.18002 88.3056 5.45938C88.3056 6.03288 88.1291 6.48507 87.7762 6.81593C87.4453 7.1468 86.9821 7.31223 86.3866 7.31223H85.394C84.2911 7.33429 83.5963 6.83799 83.3095 5.82333C83.133 5.316 82.8022 4.92999 82.3169 4.66529C81.8316 4.42266 81.214 4.26825 80.464 4.20208C79.7361 4.11385 78.3906 4.06974 76.4275 4.06974C72.3909 4.06974 69.7991 4.13591 68.6521 4.26826C67.5051 4.4006 66.722 4.72044 66.3029 5.22777C65.6853 5.91156 65.3765 7.79751 65.3765 10.8856C65.3765 13.0693 65.4537 14.6244 65.6081 15.5508C65.7846 16.4552 66.1044 17.1059 66.5676 17.5029C67.0529 17.9441 67.7918 18.2309 68.7844 18.3632C69.7991 18.4735 71.8063 18.5286 74.8062 18.5286C77.8061 18.5286 79.7361 18.4735 80.5964 18.3632C81.4566 18.2529 82.1184 17.9772 82.5816 17.536C83.2874 16.8522 83.6404 15.7604 83.6404 14.2604C83.6404 14.106 83.6293 13.9627 83.6073 13.8303Z" fill="white"/>
<path d="M43.3033 0C46.2149 0 48.3655 0.154405 49.7552 0.463215C51.1448 0.772024 52.2256 1.34553 52.9977 2.18372C53.88 3.17633 54.4204 4.7314 54.6189 6.84895C54.7072 7.75332 54.7513 9.3084 54.7513 11.5142C54.7513 14.2714 54.5858 16.3007 54.255 17.6021C53.9462 18.8815 53.3727 19.8962 52.5345 20.6461C51.4095 21.6387 49.6228 22.2122 47.1744 22.3666C45.9612 22.4769 42.7959 22.5321 37.6785 22.5321C34.9654 22.5321 32.9361 22.4438 31.5906 22.2674C30.2671 22.0909 29.1642 21.7711 28.2819 21.3079C27.1569 20.6902 26.3739 19.7197 25.9327 18.3962C25.5136 17.0507 25.3041 14.9111 25.3041 11.9774C25.3041 8.64666 25.4033 6.45191 25.6019 5.39314C26.1312 2.45945 28.0723 0.772023 31.4251 0.330867C33.1015 0.110289 37.0609 0 43.3033 0ZM40.16 4.16893C38.991 4.16893 38.1197 4.16893 37.5462 4.16893C36.9727 4.16893 36.2889 4.20202 35.4948 4.26819C34.7007 4.3123 34.1382 4.34539 33.8074 4.36745C33.4986 4.38951 33.1015 4.48877 32.6162 4.66523C32.153 4.84169 31.8552 4.98507 31.7229 5.09536C31.5906 5.18359 31.4031 5.40417 31.1604 5.75709C30.9178 6.11002 30.7854 6.4078 30.7634 6.65043C30.7413 6.87101 30.6862 7.27908 30.598 7.87464C30.5318 8.4702 30.4987 8.97753 30.4987 9.39663C30.4987 9.79367 30.4987 10.4333 30.4987 11.3157C30.4987 12.3083 30.4987 13.0693 30.4987 13.5986C30.4987 14.128 30.5538 14.7015 30.6641 15.3192C30.7965 15.9147 30.9068 16.3338 30.995 16.5765C31.1053 16.8191 31.3369 17.0948 31.6898 17.4036C32.0648 17.6904 32.4067 17.8779 32.7155 17.9661C33.0464 18.0323 33.5868 18.1205 34.3368 18.2308C35.0867 18.319 35.7815 18.3631 36.4212 18.3631C37.083 18.3631 38.0425 18.3631 39.2998 18.3631C42.454 18.3631 44.5495 18.319 45.5862 18.2308C46.645 18.1426 47.4722 17.933 48.0677 17.6021C48.6854 17.2713 49.1045 16.6647 49.325 15.7824C49.5456 14.9001 49.6559 13.356 49.6559 11.1502C49.6559 10.29 49.6559 9.66132 49.6559 9.26428C49.6559 8.84519 49.6228 8.34889 49.5567 7.77538C49.4905 7.20188 49.4353 6.80484 49.3912 6.58426C49.3692 6.36368 49.2368 6.07693 48.9942 5.724C48.7736 5.37108 48.5971 5.1505 48.4648 5.06227C48.3324 4.95198 48.0236 4.8086 47.5384 4.63214C47.0751 4.45568 46.6891 4.36745 46.3803 4.36745C46.0715 4.34539 45.5201 4.3123 44.726 4.26819C43.954 4.20202 43.2812 4.16893 42.7077 4.16893C42.1562 4.16893 41.307 4.16893 40.16 4.16893Z" fill="white"/>
<path d="M5.09739 18.1646H19.06C20.4496 18.0984 21.1665 18.716 21.2106 20.0174V20.4476C21.1665 21.749 20.4496 22.3666 19.06 22.3004H2.15267C1.40271 22.3225 0.851262 22.157 0.498337 21.8041C0.145412 21.4512 -0.0200218 20.8997 0.0020361 20.1498V2.3822C-0.0420795 0.948442 0.630684 0.231564 2.02033 0.231564H3.0791C4.46874 0.231564 5.14151 0.948442 5.09739 2.3822V18.1646Z" fill="white"/>
</svg>
